<svg width="123" height="19" viewBox="0 0 123 19" fill="none" xmlns="http://www.w3.org/2000/svg">
<path d="M5.15625 18H8.25L11.7539 5.83594H11.8008L15.293 18H18.3867L23.25 0.75H19.8984L16.7227 13.418H16.6992L13.3008 0.75H10.2422L6.85547 13.418H6.83203L3.65625 0.75H0.304688L5.15625 18Z" fill="black"/>
<path d="M27.4397 10.7344C27.4397 8.73047 28.6702 7.80469 30.2053 7.80469C31.7991 7.80469 32.7952 8.76562 32.7834 10.5586V18H35.8303V10.0898C35.8303 6.97266 33.8381 5.22656 31.2366 5.22656C29.303 5.22656 28.0139 6.19922 27.4514 7.58203H27.3694V0.75H24.3928V18H27.4397V10.7344Z" fill="black"/>
<path d="M37.7466 18H40.8052V5.625H37.7466V18ZM39.27 3.72656C40.2544 3.72656 41.0513 2.95312 41.0513 2.00391C41.0513 1.05469 40.2544 0.28125 39.27 0.28125C38.2856 0.28125 37.4888 1.05469 37.4888 2.00391C37.4888 2.95312 38.2856 3.72656 39.27 3.72656Z" fill="black"/>
<path d="M47.4909 18.0586C48.2527 18.0586 48.8269 18.0117 49.1667 17.9766L48.9675 15.5156C48.78 15.5391 48.4636 15.5625 48.1237 15.5625C47.3034 15.5625 46.7292 15.375 46.7292 14.1562V8.0625H49.0964V5.625H46.7292V2.55469H43.6706V5.625H41.9128V8.0625H43.6706V14.6602C43.6706 17.0508 45.2409 18.0586 47.4909 18.0586Z" fill="black"/>
<path d="M55.7236 18.1875C58.6884 18.1875 60.833 16.5938 61.2783 14.1445H58.4658C58.1377 15.1992 57.0361 15.8555 55.7588 15.8672C53.8603 15.8555 52.7353 14.4023 52.747 12.5977V12.5508H61.4072V11.8125C61.4072 7.99219 59.2158 5.4375 55.665 5.4375C52.0673 5.4375 49.747 8.05078 49.747 11.8242C49.747 15.668 52.0673 18.1875 55.7236 18.1875ZM52.7588 10.5703C52.8525 9.07031 53.9658 7.75781 55.665 7.75781C57.2705 7.75781 58.5009 8.90625 58.5595 10.5703H52.7588Z" fill="black"/>
<path d="M68.5327 18H79.2553V15.2344H71.7319V0.75H68.5327V18Z" fill="black"/>
<path d="M84.6286 18.1875C86.6091 18.1875 87.7341 17.3789 88.3317 16.2539H88.3786V18H91.32V9.51562C91.32 7.125 89.3161 5.4375 86.1052 5.4375C82.8005 5.4375 80.8434 7.23047 80.7145 9.51562H83.6794C83.7848 8.48438 84.7106 7.76953 86.0817 7.76953C87.4528 7.76953 88.2731 8.46094 88.2731 9.50391V9.5625C88.2731 10.4062 87.488 10.4531 85.2028 10.6992C82.6481 10.9688 80.3512 11.6836 80.3512 14.4961C80.3512 16.957 82.1559 18.1875 84.6286 18.1875ZM85.402 15.9492C84.1364 15.9492 83.3395 15.3984 83.3278 14.4492C83.3161 13.3594 84.3825 12.8906 85.6247 12.7148C86.82 12.5508 87.9216 12.3516 88.2966 12.1172V13.4297C88.2966 14.8477 87.2653 15.9492 85.402 15.9492Z" fill="black"/>
<path d="M100.033 18.1875C103.01 18.1875 105.143 15.8203 105.154 11.8008C105.143 7.69922 102.939 5.4375 100.045 5.4375C98.3691 5.4375 97.0097 6.23438 96.3534 7.57031H96.3066V0.75H93.248V18H96.2831V16.0664H96.33C97.0566 17.4375 98.3691 18.1875 100.033 18.1875ZM99.1542 15.7031C97.3144 15.7031 96.1659 14.1797 96.1659 11.8008C96.1659 9.42188 97.3261 7.93359 99.1542 7.93359C100.9 7.93359 102.072 9.28125 102.072 11.8008C102.072 14.332 100.9 15.7031 99.1542 15.7031Z" fill="black"/>
<path d="M112.203 18.1875C115.168 18.1875 117.313 16.5938 117.758 14.1445H114.945C114.617 15.1992 113.516 15.8555 112.238 15.8672C110.34 15.8555 109.215 14.4023 109.227 12.5977V12.5508H117.887V11.8125C117.887 7.99219 115.695 5.4375 112.145 5.4375C108.547 5.4375 106.227 8.05078 106.227 11.8242C106.227 15.668 108.547 18.1875 112.203 18.1875ZM109.238 10.5703C109.332 9.07031 110.445 7.75781 112.145 7.75781C113.75 7.75781 114.981 8.90625 115.039 10.5703H109.238Z" fill="black"/>
<path d="M122.405 0.75H119.346V18H122.405V0.75Z" fill="black"/>
</svg>
